<mxfile host="app.diagrams.net" modified="2024-02-28T04:13:36.073Z" agent="Mozilla/5.0 (Macintosh; Intel Mac OS X 10_15_7) AppleWebKit/537.36 (KHTML, like Gecko) Chrome/121.0.0.0 Safari/537.36" etag="_yVP18adEiV5-KHLkQod" version="23.1.7" type="github" pages="2">
  <diagram name="Page-1" id="-SflDgv0iChlwhG-n5De">
    <mxGraphModel dx="1026" dy="631" grid="1" gridSize="10" guides="1" tooltips="1" connect="1" arrows="1" fold="1" page="1" pageScale="1" pageWidth="827" pageHeight="1169" math="0" shadow="0">
      <root>
        <mxCell id="0" />
        <mxCell id="1" parent="0" />
        <mxCell id="-jV4qzR9bfvtOROIBYRO-2" value="plc" style="swimlane;whiteSpace=wrap;html=1;" vertex="1" parent="1">
          <mxGeometry x="10" y="70" width="200" height="820" as="geometry" />
        </mxCell>
        <mxCell id="-jV4qzR9bfvtOROIBYRO-5" value="documento" style="rounded=0;whiteSpace=wrap;html=1;" vertex="1" parent="-jV4qzR9bfvtOROIBYRO-2">
          <mxGeometry x="40" y="60" width="120" height="60" as="geometry" />
        </mxCell>
        <mxCell id="-jV4qzR9bfvtOROIBYRO-16" style="edgeStyle=orthogonalEdgeStyle;rounded=0;orthogonalLoop=1;jettySize=auto;html=1;exitX=0.5;exitY=1;exitDx=0;exitDy=0;entryX=0.5;entryY=0;entryDx=0;entryDy=0;" edge="1" parent="-jV4qzR9bfvtOROIBYRO-2" source="-jV4qzR9bfvtOROIBYRO-14" target="-jV4qzR9bfvtOROIBYRO-15">
          <mxGeometry relative="1" as="geometry" />
        </mxCell>
        <mxCell id="-jV4qzR9bfvtOROIBYRO-14" value="TARJETA" style="rounded=0;whiteSpace=wrap;html=1;" vertex="1" parent="-jV4qzR9bfvtOROIBYRO-2">
          <mxGeometry x="40" y="150" width="120" height="60" as="geometry" />
        </mxCell>
        <mxCell id="-jV4qzR9bfvtOROIBYRO-18" style="edgeStyle=orthogonalEdgeStyle;rounded=0;orthogonalLoop=1;jettySize=auto;html=1;exitX=0;exitY=0.5;exitDx=0;exitDy=0;entryX=0;entryY=0.5;entryDx=0;entryDy=0;" edge="1" parent="-jV4qzR9bfvtOROIBYRO-2" source="-jV4qzR9bfvtOROIBYRO-15" target="-jV4qzR9bfvtOROIBYRO-14">
          <mxGeometry relative="1" as="geometry" />
        </mxCell>
        <mxCell id="-jV4qzR9bfvtOROIBYRO-20" style="edgeStyle=orthogonalEdgeStyle;rounded=0;orthogonalLoop=1;jettySize=auto;html=1;exitX=0.5;exitY=1;exitDx=0;exitDy=0;entryX=0.5;entryY=0;entryDx=0;entryDy=0;" edge="1" parent="-jV4qzR9bfvtOROIBYRO-2" source="-jV4qzR9bfvtOROIBYRO-15" target="-jV4qzR9bfvtOROIBYRO-19">
          <mxGeometry relative="1" as="geometry" />
        </mxCell>
        <mxCell id="-jV4qzR9bfvtOROIBYRO-15" value="" style="rhombus;whiteSpace=wrap;html=1;" vertex="1" parent="-jV4qzR9bfvtOROIBYRO-2">
          <mxGeometry x="60" y="250" width="80" height="80" as="geometry" />
        </mxCell>
        <mxCell id="-jV4qzR9bfvtOROIBYRO-23" style="edgeStyle=orthogonalEdgeStyle;rounded=0;orthogonalLoop=1;jettySize=auto;html=1;exitX=0.5;exitY=1;exitDx=0;exitDy=0;entryX=0.5;entryY=0;entryDx=0;entryDy=0;" edge="1" parent="-jV4qzR9bfvtOROIBYRO-2" source="-jV4qzR9bfvtOROIBYRO-19" target="-jV4qzR9bfvtOROIBYRO-22">
          <mxGeometry relative="1" as="geometry" />
        </mxCell>
        <mxCell id="-jV4qzR9bfvtOROIBYRO-19" value="M3" style="rounded=0;whiteSpace=wrap;html=1;" vertex="1" parent="-jV4qzR9bfvtOROIBYRO-2">
          <mxGeometry x="40" y="380" width="120" height="60" as="geometry" />
        </mxCell>
        <mxCell id="-jV4qzR9bfvtOROIBYRO-24" style="edgeStyle=orthogonalEdgeStyle;rounded=0;orthogonalLoop=1;jettySize=auto;html=1;exitX=0;exitY=0.5;exitDx=0;exitDy=0;entryX=0;entryY=0.5;entryDx=0;entryDy=0;" edge="1" parent="-jV4qzR9bfvtOROIBYRO-2" source="-jV4qzR9bfvtOROIBYRO-22" target="-jV4qzR9bfvtOROIBYRO-19">
          <mxGeometry relative="1" as="geometry" />
        </mxCell>
        <mxCell id="-jV4qzR9bfvtOROIBYRO-26" style="edgeStyle=orthogonalEdgeStyle;rounded=0;orthogonalLoop=1;jettySize=auto;html=1;exitX=0.5;exitY=1;exitDx=0;exitDy=0;entryX=0.5;entryY=0;entryDx=0;entryDy=0;" edge="1" parent="-jV4qzR9bfvtOROIBYRO-2" source="-jV4qzR9bfvtOROIBYRO-22" target="-jV4qzR9bfvtOROIBYRO-25">
          <mxGeometry relative="1" as="geometry" />
        </mxCell>
        <mxCell id="-jV4qzR9bfvtOROIBYRO-22" value="" style="rhombus;whiteSpace=wrap;html=1;" vertex="1" parent="-jV4qzR9bfvtOROIBYRO-2">
          <mxGeometry x="60" y="490" width="80" height="80" as="geometry" />
        </mxCell>
        <mxCell id="-jV4qzR9bfvtOROIBYRO-25" value="" style="rounded=0;whiteSpace=wrap;html=1;" vertex="1" parent="-jV4qzR9bfvtOROIBYRO-2">
          <mxGeometry x="40" y="640" width="120" height="60" as="geometry" />
        </mxCell>
        <mxCell id="-jV4qzR9bfvtOROIBYRO-3" value="node red" style="swimlane;whiteSpace=wrap;html=1;" vertex="1" parent="1">
          <mxGeometry x="210" y="70" width="200" height="820" as="geometry" />
        </mxCell>
        <mxCell id="-jV4qzR9bfvtOROIBYRO-6" value="api rest&lt;br&gt;findonedocumento&lt;br&gt;TRANSACION" style="rounded=0;whiteSpace=wrap;html=1;" vertex="1" parent="-jV4qzR9bfvtOROIBYRO-3">
          <mxGeometry x="40" y="60" width="120" height="60" as="geometry" />
        </mxCell>
        <mxCell id="-jV4qzR9bfvtOROIBYRO-12" value="# TARJETA&lt;br&gt;SALDO&lt;br&gt;CEDULA&lt;div&gt;&lt;br/&gt;&lt;/div&gt;" style="rounded=0;whiteSpace=wrap;html=1;" vertex="1" parent="-jV4qzR9bfvtOROIBYRO-3">
          <mxGeometry x="40" y="150" width="120" height="60" as="geometry" />
        </mxCell>
        <mxCell id="-jV4qzR9bfvtOROIBYRO-4" value="strapi" style="swimlane;whiteSpace=wrap;html=1;" vertex="1" parent="1">
          <mxGeometry x="410" y="70" width="200" height="820" as="geometry" />
        </mxCell>
        <mxCell id="-jV4qzR9bfvtOROIBYRO-7" value="status&lt;br&gt;200&lt;br&gt;&lt;br&gt;400" style="rounded=0;whiteSpace=wrap;html=1;" vertex="1" parent="-jV4qzR9bfvtOROIBYRO-4">
          <mxGeometry x="40" y="60" width="120" height="60" as="geometry" />
        </mxCell>
        <mxCell id="-jV4qzR9bfvtOROIBYRO-9" value="FLUJO SALDO - DESCARGA" style="text;html=1;align=center;verticalAlign=middle;whiteSpace=wrap;rounded=0;" vertex="1" parent="1">
          <mxGeometry x="130" y="20" width="340" height="30" as="geometry" />
        </mxCell>
        <mxCell id="-jV4qzR9bfvtOROIBYRO-10" style="edgeStyle=orthogonalEdgeStyle;rounded=0;orthogonalLoop=1;jettySize=auto;html=1;exitX=1;exitY=0.5;exitDx=0;exitDy=0;entryX=0;entryY=0.5;entryDx=0;entryDy=0;" edge="1" parent="1" source="-jV4qzR9bfvtOROIBYRO-5" target="-jV4qzR9bfvtOROIBYRO-6">
          <mxGeometry relative="1" as="geometry" />
        </mxCell>
        <mxCell id="-jV4qzR9bfvtOROIBYRO-11" style="edgeStyle=orthogonalEdgeStyle;rounded=0;orthogonalLoop=1;jettySize=auto;html=1;exitX=1;exitY=0.5;exitDx=0;exitDy=0;entryX=0;entryY=0.5;entryDx=0;entryDy=0;" edge="1" parent="1" source="-jV4qzR9bfvtOROIBYRO-6" target="-jV4qzR9bfvtOROIBYRO-7">
          <mxGeometry relative="1" as="geometry" />
        </mxCell>
        <mxCell id="-jV4qzR9bfvtOROIBYRO-13" style="edgeStyle=orthogonalEdgeStyle;rounded=0;orthogonalLoop=1;jettySize=auto;html=1;exitX=0.5;exitY=1;exitDx=0;exitDy=0;entryX=1;entryY=0.5;entryDx=0;entryDy=0;" edge="1" parent="1" source="-jV4qzR9bfvtOROIBYRO-7" target="-jV4qzR9bfvtOROIBYRO-12">
          <mxGeometry relative="1" as="geometry" />
        </mxCell>
        <mxCell id="-jV4qzR9bfvtOROIBYRO-17" style="edgeStyle=orthogonalEdgeStyle;rounded=0;orthogonalLoop=1;jettySize=auto;html=1;exitX=0.5;exitY=1;exitDx=0;exitDy=0;entryX=1;entryY=0.5;entryDx=0;entryDy=0;" edge="1" parent="1" source="-jV4qzR9bfvtOROIBYRO-12" target="-jV4qzR9bfvtOROIBYRO-15">
          <mxGeometry relative="1" as="geometry" />
        </mxCell>
        <mxCell id="-jV4qzR9bfvtOROIBYRO-21" style="edgeStyle=orthogonalEdgeStyle;rounded=0;orthogonalLoop=1;jettySize=auto;html=1;exitX=0.5;exitY=1;exitDx=0;exitDy=0;entryX=1;entryY=0.5;entryDx=0;entryDy=0;" edge="1" parent="1" source="-jV4qzR9bfvtOROIBYRO-12" target="-jV4qzR9bfvtOROIBYRO-22">
          <mxGeometry relative="1" as="geometry">
            <mxPoint x="310" y="460" as="targetPoint" />
          </mxGeometry>
        </mxCell>
      </root>
    </mxGraphModel>
  </diagram>
  <diagram id="9oPddSVLnRHl8EkeMnbO" name="Page-2">
    <mxGraphModel dx="1026" dy="631" grid="1" gridSize="10" guides="1" tooltips="1" connect="1" arrows="1" fold="1" page="1" pageScale="1" pageWidth="827" pageHeight="1169" math="0" shadow="0">
      <root>
        <mxCell id="0" />
        <mxCell id="1" parent="0" />
        <mxCell id="VoG2Q1s3Ev6qQOhf3exg-1" value="ANGULAR" style="swimlane;whiteSpace=wrap;html=1;" vertex="1" parent="1">
          <mxGeometry x="10" y="70" width="200" height="820" as="geometry" />
        </mxCell>
        <mxCell id="VoG2Q1s3Ev6qQOhf3exg-2" value="documento" style="rounded=0;whiteSpace=wrap;html=1;" vertex="1" parent="VoG2Q1s3Ev6qQOhf3exg-1">
          <mxGeometry x="40" y="60" width="120" height="60" as="geometry" />
        </mxCell>
        <mxCell id="VoG2Q1s3Ev6qQOhf3exg-5" style="edgeStyle=orthogonalEdgeStyle;rounded=0;orthogonalLoop=1;jettySize=auto;html=1;exitX=0;exitY=0.5;exitDx=0;exitDy=0;entryX=0;entryY=0.5;entryDx=0;entryDy=0;" edge="1" parent="VoG2Q1s3Ev6qQOhf3exg-1" source="VoG2Q1s3Ev6qQOhf3exg-7">
          <mxGeometry relative="1" as="geometry">
            <mxPoint x="40" y="180" as="targetPoint" />
          </mxGeometry>
        </mxCell>
        <mxCell id="VoG2Q1s3Ev6qQOhf3exg-10" style="edgeStyle=orthogonalEdgeStyle;rounded=0;orthogonalLoop=1;jettySize=auto;html=1;exitX=0;exitY=0.5;exitDx=0;exitDy=0;entryX=0;entryY=0.5;entryDx=0;entryDy=0;" edge="1" parent="VoG2Q1s3Ev6qQOhf3exg-1" source="VoG2Q1s3Ev6qQOhf3exg-12">
          <mxGeometry relative="1" as="geometry">
            <mxPoint x="40" y="410" as="targetPoint" />
          </mxGeometry>
        </mxCell>
        <mxCell id="VoG2Q1s3Ev6qQOhf3exg-14" value="SERVICE" style="swimlane;whiteSpace=wrap;html=1;" vertex="1" parent="1">
          <mxGeometry x="210" y="70" width="200" height="820" as="geometry" />
        </mxCell>
        <mxCell id="VoG2Q1s3Ev6qQOhf3exg-15" value="api rest&lt;br&gt;findonedocumento" style="rounded=0;whiteSpace=wrap;html=1;" vertex="1" parent="VoG2Q1s3Ev6qQOhf3exg-14">
          <mxGeometry x="40" y="60" width="120" height="60" as="geometry" />
        </mxCell>
        <mxCell id="VoG2Q1s3Ev6qQOhf3exg-16" value="# TARJETA&lt;br&gt;SALDO&lt;br&gt;CEDULA&lt;div&gt;&lt;br/&gt;&lt;/div&gt;" style="rounded=0;whiteSpace=wrap;html=1;" vertex="1" parent="VoG2Q1s3Ev6qQOhf3exg-14">
          <mxGeometry x="40" y="150" width="120" height="60" as="geometry" />
        </mxCell>
        <mxCell id="VoG2Q1s3Ev6qQOhf3exg-17" value="strapi" style="swimlane;whiteSpace=wrap;html=1;" vertex="1" parent="1">
          <mxGeometry x="410" y="70" width="200" height="820" as="geometry" />
        </mxCell>
        <mxCell id="VoG2Q1s3Ev6qQOhf3exg-18" value="status&lt;br&gt;200&lt;br&gt;&lt;br&gt;400" style="rounded=0;whiteSpace=wrap;html=1;" vertex="1" parent="VoG2Q1s3Ev6qQOhf3exg-17">
          <mxGeometry x="40" y="60" width="120" height="60" as="geometry" />
        </mxCell>
        <mxCell id="VoG2Q1s3Ev6qQOhf3exg-19" value="FLUJO SALDO - DESCARGA" style="text;html=1;align=center;verticalAlign=middle;whiteSpace=wrap;rounded=0;" vertex="1" parent="1">
          <mxGeometry x="130" y="20" width="340" height="30" as="geometry" />
        </mxCell>
        <mxCell id="VoG2Q1s3Ev6qQOhf3exg-20" style="edgeStyle=orthogonalEdgeStyle;rounded=0;orthogonalLoop=1;jettySize=auto;html=1;exitX=1;exitY=0.5;exitDx=0;exitDy=0;entryX=0;entryY=0.5;entryDx=0;entryDy=0;" edge="1" parent="1" source="VoG2Q1s3Ev6qQOhf3exg-2" target="VoG2Q1s3Ev6qQOhf3exg-15">
          <mxGeometry relative="1" as="geometry" />
        </mxCell>
        <mxCell id="VoG2Q1s3Ev6qQOhf3exg-21" style="edgeStyle=orthogonalEdgeStyle;rounded=0;orthogonalLoop=1;jettySize=auto;html=1;exitX=1;exitY=0.5;exitDx=0;exitDy=0;entryX=0;entryY=0.5;entryDx=0;entryDy=0;" edge="1" parent="1" source="VoG2Q1s3Ev6qQOhf3exg-15" target="VoG2Q1s3Ev6qQOhf3exg-18">
          <mxGeometry relative="1" as="geometry" />
        </mxCell>
        <mxCell id="VoG2Q1s3Ev6qQOhf3exg-22" style="edgeStyle=orthogonalEdgeStyle;rounded=0;orthogonalLoop=1;jettySize=auto;html=1;exitX=0.5;exitY=1;exitDx=0;exitDy=0;entryX=1;entryY=0.5;entryDx=0;entryDy=0;" edge="1" parent="1" source="VoG2Q1s3Ev6qQOhf3exg-18" target="VoG2Q1s3Ev6qQOhf3exg-16">
          <mxGeometry relative="1" as="geometry" />
        </mxCell>
      </root>
    </mxGraphModel>
  </diagram>
</mxfile>
